HIERARCHY
ROOT Hips
{
	OFFSET	0.00	0.00	0.00
	CHANNELS 6 Xposition Yposition Zposition Zrotation Xrotation Yrotation
	JOINT LeftUpLeg
	{
		OFFSET	 0.126116	-0.065224	 0.014019
		CHANNELS 3 Zrotation Xrotation Yrotation
		JOINT LeftLeg
		{
			OFFSET	 0.000000	 0.569914	 0.000000
			CHANNELS 3 Zrotation Xrotation Yrotation
			JOINT LeftFoot
			{
				OFFSET	 0.000000	 0.544423	 0.000000
				CHANNELS 3 Zrotation Xrotation Yrotation
				JOINT LeftToeBase
				{
					OFFSET	 0.000000	 0.207117	 0.000000
					CHANNELS 3 Zrotation Xrotation Yrotation
					End Site
					{
						OFFSET	 0.000000	 0.207117	 0.000000
					}
				}
			}
		}
	}
	JOINT RightUpLeg
	{
		OFFSET	-0.124023	-0.065224	 0.008373
		CHANNELS 3 Zrotation Xrotation Yrotation
		JOINT RightLeg
		{
			OFFSET	 0.000000	 0.570047	 0.000000
			CHANNELS 3 Zrotation Xrotation Yrotation
			JOINT RightFoot
			{
				OFFSET	 0.000000	 0.544354	 0.000000
				CHANNELS 3 Zrotation Xrotation Yrotation
				JOINT RightToeBase
				{
					OFFSET	 0.000000	 0.207540	 0.000000
					CHANNELS 3 Zrotation Xrotation Yrotation
					End Site
					{
						OFFSET	 0.000000	 0.207540	 0.000000
					}
				}
			}
		}
	}
	JOINT Spine
	{
		OFFSET	 0.000184	 0.117403	 0.007763
		CHANNELS 3 Zrotation Xrotation Yrotation
		JOINT Spine1
		{
			OFFSET	 0.000000	 0.137269	 0.000000
			CHANNELS 3 Zrotation Xrotation Yrotation
			JOINT Spine2
			{
				OFFSET	 0.000000	 0.156879	 0.000000
				CHANNELS 3 Zrotation Xrotation Yrotation
				JOINT LeftShoulder
				{
					OFFSET	 0.080501	 0.160143	 0.002496
					CHANNELS 3 Zrotation Xrotation Yrotation
					JOINT LeftArm
					{
						OFFSET	 0.000000	 0.164363	 0.000000
						CHANNELS 3 Zrotation Xrotation Yrotation
						JOINT LeftForeArm
						{
							OFFSET	 0.000000	 0.364576	 0.000000
							CHANNELS 3 Zrotation Xrotation Yrotation
							JOINT LeftHand
							{
								OFFSET	 0.000000	 0.360812	 0.000000
								CHANNELS 3 Zrotation Xrotation Yrotation
								JOINT LeftHandIndex1
								{
									OFFSET	 0.000000	 0.086006	 0.000000
									CHANNELS 3 Zrotation Xrotation Yrotation
									JOINT LeftHandIndex2
									{
										OFFSET	 0.000000	 0.047237	 0.000000
										CHANNELS 3 Zrotation Xrotation Yrotation
										JOINT LeftHandIndex3
										{
											OFFSET	-0.004284	 0.038165	 0.000551
											CHANNELS 3 Zrotation Xrotation Yrotation
											End Site
											{
												OFFSET	-0.004284	 0.038165	 0.000551
											}
										}
									}
								}
							}
						}
					}
				}
				JOINT Neck
				{
					OFFSET	 0.000000	 0.176489	 0.000000
					CHANNELS 3 Zrotation Xrotation Yrotation
					JOINT Head
					{
						OFFSET	 0.000000	 0.077941	 0.001747
						CHANNELS 3 Zrotation Xrotation Yrotation
						End Site
						{
							OFFSET	 0.000000	 0.077941	 0.001747
						}
					}
				}
				JOINT RightShoulder
				{
					OFFSET	-0.080363	 0.159706	-0.000306
					CHANNELS 3 Zrotation Xrotation Yrotation
					JOINT RightArm
					{
						OFFSET	 0.000000	 0.164196	 0.000000
						CHANNELS 3 Zrotation Xrotation Yrotation
						JOINT RightForeArm
						{
							OFFSET	 0.000000	 0.365611	 0.000000
							CHANNELS 3 Zrotation Xrotation Yrotation
							JOINT RightHand
							{
								OFFSET	 0.000000	 0.360648	 0.000000
								CHANNELS 3 Zrotation Xrotation Yrotation
								JOINT RightHandIndex1
								{
									OFFSET	 0.000000	 0.069977	 0.000000
									CHANNELS 3 Zrotation Xrotation Yrotation
									JOINT RightHandIndex2
									{
										OFFSET	 0.000000	 0.052305	 0.000000
										CHANNELS 3 Zrotation Xrotation Yrotation
										JOINT RightHandIndex3
										{
											OFFSET	 0.009002	 0.042196	 0.000782
											CHANNELS 3 Zrotation Xrotation Yrotation
											End Site
											{
												OFFSET	 0.009002	 0.042196	 0.000782
											}
										}
									}
								}
							}
						}
					}
				}
			}
		}
	}
}
MOTION
Frames:    7
Frame Time: 0.03333334
-0.017713	 1.255556	 0.114941	 4.864645	 0.298267	 173.984900	-175.845300	 16.790340	 18.689650	 2.816235	-28.052980	 1.298516	 49.583560	 48.202770	-66.610340	 4.912824	 28.009660	-6.307251	-168.904900	 3.233441	-12.017970	-1.467668	-16.551330	 1.919653	-56.706040	 56.549350	 60.410680	-0.379366	 31.175170	 1.635888	 1.390624	 3.837092	-14.718620	 9.364977	 9.732864	-8.081699	-7.932417	-7.801855	 25.375920	-112.550500	 3.112216	 88.311960	-10.484480	 50.298220	 35.229610	 29.292600	-1.477770	 0.953487	-29.190170	-3.960594	-95.586540	-7.999749	 12.523740	-5.837546	-7.228819	 12.660750	 2.803567	 4.963066	-4.014628	-0.346955	 1.505176	-13.894980	 1.359755	-2.450192	 7.975170	-16.387100	 109.109700	 0.686788	-88.601340	-13.276900	 66.562680	 12.843250	-5.100457	-0.471327	 41.334500	-17.550900	 18.113620	-100.675700	 1.999837	 8.266287	 8.960310	 15.202950	 20.256390	-6.346219	-8.239867	-2.131385	 0.447455
-0.018479	 1.255915	 0.114564	 5.021061	 0.211573	 174.124800	-175.794800	 17.006530	 18.815570	 2.848489	-28.324470	 1.372999	 49.576230	 48.214950	-66.658130	 4.912828	 28.009690	-6.307231	-168.791000	 3.282483	-11.875730	-1.462755	-16.498900	 1.775054	-56.623990	 56.391350	 60.400410	-0.391719	 31.190270	 1.648139	 1.469663	 3.719064	-14.679170	 10.293750	 10.233810	-8.304453	-8.959367	-8.636451	 25.219430	-112.480200	 3.024275	 88.299900	-11.447400	 49.640910	 35.638960	 30.455660	-1.530783	 0.980852	-28.767390	-3.962617	-94.933200	-7.918822	 12.590050	-5.857627	-7.229187	 12.645360	 2.801466	 4.963066	-4.014628	-0.346955	 1.432673	-13.784860	 1.396873	-2.450895	 7.947815	-16.867080	 109.021900	 0.753859	-88.635330	-12.874370	 67.076650	 12.708710	-5.095302	-0.470898	 41.119510	-19.388270	 18.257800	-100.559900	 1.930221	 8.078467	 8.958514	 15.203230	 20.298060	-6.357622	-8.239867	-2.131385	 0.447455
-0.019369	 1.256025	 0.113937	 5.144762	 0.091293	 174.332100	-175.817700	 17.300550	 19.015780	 2.890599	-28.676760	 1.477918	 49.622310	 48.231930	-66.772510	 4.912835	 28.009720	-6.307201	-168.686700	 3.469542	-11.674540	-1.479030	-16.672330	 1.565232	-56.738870	 56.257800	 60.649080	-0.409749	 31.212280	 1.666020	 1.549249	 3.609744	-14.658780	 11.096020	 10.630070	-8.517979	-9.865176	-9.365384	 25.077260	-112.377800	 2.895974	 88.282550	-12.346110	 49.083470	 35.911500	 31.501110	-1.577893	 1.004546	-28.593230	-4.032627	-93.981540	-7.800698	 12.686730	-5.887100	-7.229724	 12.622910	 2.798401	 4.963066	-4.014628	-0.346955	 1.326844	-13.624320	 1.451242	-2.428775	 8.102876	-17.631400	 108.894000	 0.851794	-88.684710	-12.314190	 67.567820	 12.554890	-5.093094	-0.470643	 40.806150	-21.237800	 18.408590	-100.516400	 1.828714	 7.804488	 8.955482	 15.203660	 20.358830	-6.374259	-8.239867	-2.131385	 0.447455
-0.020410	 1.255798	 0.112958	 5.230020	-0.060458	 174.605100	-175.927400	 17.675340	 19.292610	 2.945506	-29.132590	 1.612332	 49.738780	 48.265910	-66.974650	 4.912843	 28.009770	-6.307161	-168.594100	 3.814221	-11.415990	-1.521862	-17.127080	 1.298097	-57.082100	 56.175320	 61.197720	-0.433279	 31.240980	 1.689355	 1.616951	 3.510053	-14.645990	 11.750930	 10.924590	-8.701117	-10.623020	-9.971672	 24.953000	-112.244400	 2.728627	 88.260270	-13.183540	 48.630250	 36.057470	 32.409250	-1.618201	 1.023735	-28.659150	-4.191433	-92.712160	-7.646516	 12.812710	-5.925858	-7.230426	 12.593640	 2.794405	 4.963066	-4.014628	-0.346955	 1.188708	-13.415120	 1.522546	-2.381432	 8.459048	-18.673780	 108.727300	 0.979668	-88.748760	-11.535020	 68.016070	 12.323190	-5.090748	-0.470413	 40.399200	-23.078310	 18.577590	-100.509300	 1.696411	 7.447189	 8.950794	 15.204240	 20.438080	-6.395966	-8.239867	-2.131385	 0.447455
-0.021818	 1.255041	 0.111295	 5.276277	-0.268720	 174.993500	-176.172000	 18.200740	 19.704580	 3.026945	-29.801170	 1.799719	 49.974370	 48.338130	-67.333850	 4.912855	 28.009840	-6.307106	-168.509900	 4.403622	-11.053630	-1.606226	-18.016590	 0.935689	-57.767660	 56.163120	 62.207920	-0.466544	 31.281510	 1.722346	 1.664732	 3.408669	-14.623240	 12.307970	 11.148730	-8.850009	-11.290820	-10.505210	 24.833730	-112.056000	 2.492196	 88.229480	-14.070280	 48.236470	 36.081760	 33.264020	-1.655705	 1.039553	-28.994110	-4.514265	-90.851840	-7.428482	 12.990460	-5.981221	-7.231423	 12.552300	 2.788762	 4.963066	-4.014628	-0.346955	 0.993357	-13.119930	 1.624030	-2.290799	 9.126201	-20.192710	 108.492000	 1.160602	-88.838630	-10.294390	 68.458440	 11.878290	-5.091053	-0.470483	 39.827430	-25.159980	 18.796820	-100.490500	 1.509667	 6.942544	 8.942764	 15.205130	 20.550000	-6.426642	-8.239867	-2.131385	 0.447455
-0.023256	 1.253933	 0.109294	 5.264000	-0.483929	 175.402900	-176.502600	 18.741250	 20.153570	 3.114569	-30.510720	 1.991421	 50.271770	 48.432890	-67.761280	 4.912868	 28.009900	-6.307048	-168.471500	 5.080037	-10.677710	-1.709891	-19.097000	 0.576803	-58.616120	 56.220250	 63.413570	-0.501269	 31.323730	 1.756785	 1.663499	 3.327403	-14.586520	 12.624010	 11.257230	-8.916267	-11.696260	-10.833070	 24.750340	-111.859800	 2.245569	 88.198200	-14.781820	 47.995200	 35.975840	 33.837280	-1.680452	 1.047312	-29.480030	-4.957225	-88.844410	-7.200810	 13.175550	-6.039723	-7.232465	 12.509200	 2.782878	 4.963066	-4.014628	-0.346955	 0.789359	-12.812530	 1.730808	-2.169851	 9.954456	-21.817710	 108.247000	 1.349628	-88.931530	-8.855589	 68.782300	 11.287250	-5.091925	-0.470511	 39.234120	-26.973440	 19.010950	-100.433900	 1.315087	 6.416405	 8.932637	 15.206110	 20.666680	-6.458650	-8.239867	-2.131385	 0.447455
-0.025186	 1.252118	 0.106357	 5.202338	-0.761817	 175.946300	-177.015900	 19.448900	 20.777550	 3.237737	-31.490630	 2.243492	 50.734460	 48.583520	-68.406420	 4.912884	 28.010000	-6.306971	-168.471900	 6.002605	-10.174480	-1.858755	-20.624070	 0.126378	-59.839460	 56.353670	 65.113430	-0.547749	 31.380140	 1.802882	 1.620020	 3.252095	-14.519190	 12.795550	 11.296460	-8.909943	-11.954220	-11.053010	 24.686860	-111.597900	 1.915809	 88.157720	-15.516140	 47.850520	 35.705650	 34.303060	-1.700326	 1.049010	-30.252120	-5.701512	-86.106850	-6.895952	 13.422580	-6.119161	-7.233865	 12.451600	 2.775016	 4.963066	-4.014628	-0.346955	 0.516181	-12.402260	 1.875067	-1.964330	 11.211480	-24.047750	 107.920100	 1.602854	-89.054430	-6.801894	 69.072080	 10.382570	-5.094698	-0.470837	 38.446910	-29.031180	 19.276120	-100.330000	 1.055169	 5.713252	 8.916317	 15.207550	 20.822620	-6.501470	-8.239867	-2.131385	 0.447455
